{
	"asset":{
		"generator":"Khronos glTF Blender I/O v5.1.20",
		"version":"2.0"
	},
	"scene":0,
	"scenes":[
		{
			"extras":{
				"svg_export":{},
				"_RNA_UI":{
					"SRID":{
						"description":"Map Coordinate Reference System",
						"default":""
					}
				}
			},
			"name":"Scene",
			"nodes":[
				0,
				1
			]
		}
	],
	"nodes":[
		{
			"mesh":0,
			"name":"CarBody"
		},
		{
			"mesh":1,
			"name":"Wheel",
			"translation":[
				2.0538365840911865,
				0,
				0
			]
		}
	],
	"materials":[
		{
			"doubleSided":true,
			"name":"Windows",
			"pbrMetallicRoughness":{
				"baseColorFactor":[
					0.800000011920929,
					0.800000011920929,
					0.800000011920929,
					1
				],
				"metallicFactor":0,
				"roughnessFactor":0.5
			}
		},
		{
			"doubleSided":true,
			"name":"Paint",
			"pbrMetallicRoughness":{
				"baseColorFactor":[
					0,
					0.010197754949331284,
					0.8000000715255737,
					1
				],
				"metallicFactor":0,
				"roughnessFactor":0.5
			}
		},
		{
			"doubleSided":true,
			"name":"Tire",
			"pbrMetallicRoughness":{
				"baseColorFactor":[
					0.02623983845114708,
					0.02623983845114708,
					0.02623983845114708,
					1
				],
				"metallicFactor":0,
				"roughnessFactor":0.5
			}
		},
		{
			"doubleSided":true,
			"name":"Rim",
			"pbrMetallicRoughness":{
				"baseColorFactor":[
					0,
					0.009999999776482582,
					0.800000011920929,
					1
				],
				"metallicFactor":0,
				"roughnessFactor":0.5
			}
		},
		{
			"doubleSided":true,
			"name":"RimInner",
			"pbrMetallicRoughness":{
				"baseColorFactor":[
					0.026000000536441803,
					0.026000000536441803,
					0.026000000536441803,
					1
				],
				"metallicFactor":0,
				"roughnessFactor":0.5
			}
		},
		{
			"doubleSided":true,
			"name":"RimMiddle",
			"pbrMetallicRoughness":{
				"baseColorFactor":[
					0.800000011920929,
					0.800000011920929,
					0.800000011920929,
					1
				],
				"metallicFactor":0,
				"roughnessFactor":0.5
			}
		}
	],
	"meshes":[
		{
			"name":"Cube.002",
			"primitives":[
				{
					"attributes":{
						"POSITION":0,
						"NORMAL":1,
						"TEXCOORD_0":2,
						"TANGENT":3
					},
					"indices":4,
					"material":0
				},
				{
					"attributes":{
						"POSITION":5,
						"NORMAL":6,
						"TEXCOORD_0":7,
						"TANGENT":8
					},
					"indices":9,
					"material":1
				}
			]
		},
		{
			"name":"Cylinder.001",
			"primitives":[
				{
					"attributes":{
						"POSITION":10,
						"NORMAL":11,
						"TEXCOORD_0":12
					},
					"indices":13,
					"material":2
				},
				{
					"attributes":{
						"POSITION":14,
						"NORMAL":15,
						"TEXCOORD_0":16
					},
					"indices":17,
					"material":3
				},
				{
					"attributes":{
						"POSITION":18,
						"NORMAL":19,
						"TEXCOORD_0":20
					},
					"indices":21,
					"material":4
				},
				{
					"attributes":{
						"POSITION":22,
						"NORMAL":23,
						"TEXCOORD_0":24
					},
					"indices":25,
					"material":5
				}
			]
		}
	],
	"accessors":[
		{
			"bufferView":0,
			"componentType":5126,
			"count":102,
			"max":[
				0.7568483352661133,
				0.9636673331260681,
				2.8011040687561035
			],
			"min":[
				-0.7568483352661133,
				-0.7608604431152344,
				-2.398895502090454
			],
			"type":"VEC3"
		},
		{
			"bufferView":1,
			"componentType":5126,
			"count":102,
			"type":"VEC3"
		},
		{
			"bufferView":2,
			"componentType":5126,
			"count":102,
			"type":"VEC2"
		},
		{
			"bufferView":3,
			"componentType":5126,
			"count":102,
			"type":"VEC4"
		},
		{
			"bufferView":4,
			"componentType":5123,
			"count":186,
			"type":"SCALAR"
		},
		{
			"bufferView":5,
			"componentType":5126,
			"count":243,
			"max":[
				0.7568483352661133,
				1.1021395921707153,
				2.8011040687561035
			],
			"min":[
				-0.7568483352661133,
				0.03952467441558838,
				-2.254579544067383
			],
			"type":"VEC3"
		},
		{
			"bufferView":6,
			"componentType":5126,
			"count":243,
			"type":"VEC3"
		},
		{
			"bufferView":7,
			"componentType":5126,
			"count":243,
			"type":"VEC2"
		},
		{
			"bufferView":8,
			"componentType":5126,
			"count":243,
			"type":"VEC4"
		},
		{
			"bufferView":9,
			"componentType":5123,
			"count":366,
			"type":"SCALAR"
		},
		{
			"bufferView":10,
			"componentType":5126,
			"count":548,
			"max":[
				0.5500002503395081,
				0.8399999141693115,
				0.8399999737739563
			],
			"min":[
				-0.550000011920929,
				-0.8399999737739563,
				-0.8399999737739563
			],
			"type":"VEC3"
		},
		{
			"bufferView":11,
			"componentType":5126,
			"count":548,
			"type":"VEC3"
		},
		{
			"bufferView":12,
			"componentType":5126,
			"count":548,
			"type":"VEC2"
		},
		{
			"bufferView":13,
			"componentType":5123,
			"count":1194,
			"type":"SCALAR"
		},
		{
			"bufferView":14,
			"componentType":5126,
			"count":128,
			"max":[
				0.5500002503395081,
				0.4352497458457947,
				0.43524983525276184
			],
			"min":[
				0.49300044775009155,
				-0.4352499544620514,
				-0.4352498948574066
			],
			"type":"VEC3"
		},
		{
			"bufferView":15,
			"componentType":5126,
			"count":128,
			"type":"VEC3"
		},
		{
			"bufferView":16,
			"componentType":5126,
			"count":128,
			"type":"VEC2"
		},
		{
			"bufferView":17,
			"componentType":5123,
			"count":192,
			"type":"SCALAR"
		},
		{
			"bufferView":18,
			"componentType":5126,
			"count":32,
			"max":[
				0.20209115743637085,
				0.344572514295578,
				0.344572514295578
			],
			"min":[
				0.20209115743637085,
				-0.3445727527141571,
				-0.3445727527141571
			],
			"type":"VEC3"
		},
		{
			"bufferView":19,
			"componentType":5126,
			"count":32,
			"type":"VEC3"
		},
		{
			"bufferView":20,
			"componentType":5126,
			"count":32,
			"type":"VEC2"
		},
		{
			"bufferView":21,
			"componentType":5123,
			"count":90,
			"type":"SCALAR"
		},
		{
			"bufferView":22,
			"componentType":5126,
			"count":148,
			"max":[
				0.5500001907348633,
				0.6569178700447083,
				0.344572514295578
			],
			"min":[
				0.20209115743637085,
				-0.6569179892539978,
				-0.3445727527141571
			],
			"type":"VEC3"
		},
		{
			"bufferView":23,
			"componentType":5126,
			"count":148,
			"type":"VEC3"
		},
		{
			"bufferView":24,
			"componentType":5126,
			"count":148,
			"type":"VEC2"
		},
		{
			"bufferView":25,
			"componentType":5123,
			"count":240,
			"type":"SCALAR"
		}
	],
	"bufferViews":[
		{
			"buffer":0,
			"byteLength":1224,
			"byteOffset":0,
			"target":34962
		},
		{
			"buffer":0,
			"byteLength":1224,
			"byteOffset":1224,
			"target":34962
		},
		{
			"buffer":0,
			"byteLength":816,
			"byteOffset":2448,
			"target":34962
		},
		{
			"buffer":0,
			"byteLength":1632,
			"byteOffset":3264,
			"target":34962
		},
		{
			"buffer":0,
			"byteLength":372,
			"byteOffset":4896,
			"target":34963
		},
		{
			"buffer":0,
			"byteLength":2916,
			"byteOffset":5268,
			"target":34962
		},
		{
			"buffer":0,
			"byteLength":2916,
			"byteOffset":8184,
			"target":34962
		},
		{
			"buffer":0,
			"byteLength":1944,
			"byteOffset":11100,
			"target":34962
		},
		{
			"buffer":0,
			"byteLength":3888,
			"byteOffset":13044,
			"target":34962
		},
		{
			"buffer":0,
			"byteLength":732,
			"byteOffset":16932,
			"target":34963
		},
		{
			"buffer":0,
			"byteLength":6576,
			"byteOffset":17664,
			"target":34962
		},
		{
			"buffer":0,
			"byteLength":6576,
			"byteOffset":24240,
			"target":34962
		},
		{
			"buffer":0,
			"byteLength":4384,
			"byteOffset":30816,
			"target":34962
		},
		{
			"buffer":0,
			"byteLength":2388,
			"byteOffset":35200,
			"target":34963
		},
		{
			"buffer":0,
			"byteLength":1536,
			"byteOffset":37588,
			"target":34962
		},
		{
			"buffer":0,
			"byteLength":1536,
			"byteOffset":39124,
			"target":34962
		},
		{
			"buffer":0,
			"byteLength":1024,
			"byteOffset":40660,
			"target":34962
		},
		{
			"buffer":0,
			"byteLength":384,
			"byteOffset":41684,
			"target":34963
		},
		{
			"buffer":0,
			"byteLength":384,
			"byteOffset":42068,
			"target":34962
		},
		{
			"buffer":0,
			"byteLength":384,
			"byteOffset":42452,
			"target":34962
		},
		{
			"buffer":0,
			"byteLength":256,
			"byteOffset":42836,
			"target":34962
		},
		{
			"buffer":0,
			"byteLength":180,
			"byteOffset":43092,
			"target":34963
		},
		{
			"buffer":0,
			"byteLength":1776,
			"byteOffset":43272,
			"target":34962
		},
		{
			"buffer":0,
			"byteLength":1776,
			"byteOffset":45048,
			"target":34962
		},
		{
			"buffer":0,
			"byteLength":1184,
			"byteOffset":46824,
			"target":34962
		},
		{
			"buffer":0,
			"byteLength":480,
			"byteOffset":48008,
			"target":34963
		}
	],
	"buffers":[
		{
			"byteLength":48488,
			"uri":"VehicleDemo6DOF-e10d19297b54f18adf79e11dd033cea5.bin"
		}
	]
}
